<mxfile host="app.diagrams.net" modified="2022-08-18T08:45:15.134Z" agent="5.0 (Windows NT 10.0; Win64; x64) AppleWebKit/537.36 (KHTML, like Gecko) Chrome/104.0.0.0 Safari/537.36" etag="4Am6P4iH44isafgLVgaf" version="20.2.4" type="github">
  <diagram id="rm4eFbJQhaQEUxfsQMxW" name="Страница 1">
    <mxGraphModel dx="2031" dy="1089" grid="1" gridSize="10" guides="1" tooltips="1" connect="1" arrows="1" fold="1" page="1" pageScale="1" pageWidth="827" pageHeight="1169" math="0" shadow="0">
      <root>
        <mxCell id="0" />
        <mxCell id="1" parent="0" />
        <mxCell id="YZPxAEa2YmlbA1CaEWDh-1" value="&lt;font style=&quot;font-size: 9px;&quot;&gt;&lt;br&gt;&lt;/font&gt;" style="rounded=0;whiteSpace=wrap;html=1;" vertex="1" parent="1">
          <mxGeometry x="40" y="1040" width="160" height="80" as="geometry" />
        </mxCell>
        <mxCell id="YZPxAEa2YmlbA1CaEWDh-2" value="&lt;font style=&quot;font-size: 9px;&quot;&gt;&lt;br&gt;&lt;/font&gt;" style="rounded=0;whiteSpace=wrap;html=1;" vertex="1" parent="1">
          <mxGeometry x="200" y="1040" width="160" height="80" as="geometry" />
        </mxCell>
        <mxCell id="YZPxAEa2YmlbA1CaEWDh-3" value="&lt;font style=&quot;font-size: 9px;&quot;&gt;&lt;br&gt;&lt;/font&gt;" style="rounded=0;whiteSpace=wrap;html=1;" vertex="1" parent="1">
          <mxGeometry x="40" y="920" width="160" height="80" as="geometry" />
        </mxCell>
        <mxCell id="YZPxAEa2YmlbA1CaEWDh-4" value="&lt;font style=&quot;font-size: 9px;&quot;&gt;&lt;br&gt;&lt;/font&gt;" style="rounded=0;whiteSpace=wrap;html=1;" vertex="1" parent="1">
          <mxGeometry x="200" y="920" width="160" height="80" as="geometry" />
        </mxCell>
        <mxCell id="YZPxAEa2YmlbA1CaEWDh-5" value="&lt;font style=&quot;font-size: 9px;&quot;&gt;&lt;br&gt;&lt;/font&gt;" style="rounded=0;whiteSpace=wrap;html=1;" vertex="1" parent="1">
          <mxGeometry x="40" y="840" width="160" height="80" as="geometry" />
        </mxCell>
        <mxCell id="YZPxAEa2YmlbA1CaEWDh-6" value="&lt;font style=&quot;font-size: 9px;&quot;&gt;&lt;br&gt;&lt;/font&gt;" style="rounded=0;whiteSpace=wrap;html=1;" vertex="1" parent="1">
          <mxGeometry x="200" y="840" width="160" height="80" as="geometry" />
        </mxCell>
        <mxCell id="YZPxAEa2YmlbA1CaEWDh-7" value="&lt;font style=&quot;font-size: 9px;&quot;&gt;&lt;br&gt;&lt;/font&gt;" style="rounded=0;whiteSpace=wrap;html=1;" vertex="1" parent="1">
          <mxGeometry x="40" y="720" width="160" height="80" as="geometry" />
        </mxCell>
        <mxCell id="YZPxAEa2YmlbA1CaEWDh-8" value="&lt;font style=&quot;font-size: 9px;&quot;&gt;&lt;br&gt;&lt;/font&gt;" style="rounded=0;whiteSpace=wrap;html=1;" vertex="1" parent="1">
          <mxGeometry x="200" y="720" width="160" height="80" as="geometry" />
        </mxCell>
        <mxCell id="YZPxAEa2YmlbA1CaEWDh-9" value="&lt;font style=&quot;font-size: 9px;&quot;&gt;&lt;br&gt;&lt;/font&gt;" style="rounded=0;whiteSpace=wrap;html=1;" vertex="1" parent="1">
          <mxGeometry x="40" y="640" width="160" height="80" as="geometry" />
        </mxCell>
        <mxCell id="YZPxAEa2YmlbA1CaEWDh-10" value="&lt;font style=&quot;font-size: 9px;&quot;&gt;&lt;br&gt;&lt;/font&gt;" style="rounded=0;whiteSpace=wrap;html=1;" vertex="1" parent="1">
          <mxGeometry x="200" y="640" width="160" height="80" as="geometry" />
        </mxCell>
        <mxCell id="YZPxAEa2YmlbA1CaEWDh-11" value="" style="rounded=0;whiteSpace=wrap;html=1;" vertex="1" parent="1">
          <mxGeometry x="40" y="440" width="320" height="160" as="geometry" />
        </mxCell>
        <mxCell id="YZPxAEa2YmlbA1CaEWDh-14" value="" style="rounded=0;whiteSpace=wrap;html=1;" vertex="1" parent="1">
          <mxGeometry x="40" y="280" width="320" height="160" as="geometry" />
        </mxCell>
        <mxCell id="YZPxAEa2YmlbA1CaEWDh-15" value="" style="rounded=0;whiteSpace=wrap;html=1;" vertex="1" parent="1">
          <mxGeometry x="40" y="120" width="320" height="160" as="geometry" />
        </mxCell>
      </root>
    </mxGraphModel>
  </diagram>
</mxfile>
